<svg width="179" height="84" viewBox="0 0 179 84" fill="none" xmlns="http://www.w3.org/2000/svg">
<path d="M137.119 15.6893C137.119 12.8041 137.591 10.227 138.533 7.95807C139.475 5.70313 140.782 3.91741 142.454 2.60087C144.139 1.29833 146.09 0.598039 148.306 0.499999L148.306 7.09672C147.099 7.18076 146.05 7.60794 145.161 8.37825C144.285 9.16258 143.609 10.185 143.131 11.4455C142.653 12.706 142.414 14.1066 142.414 15.6473C142.414 17.342 142.693 18.8406 143.25 20.1431C143.808 21.4597 144.584 22.4891 145.579 23.2314C146.588 23.9737 147.749 24.3449 149.063 24.3449C150.429 24.3449 151.63 23.9737 152.665 23.2314C153.714 22.5031 154.536 21.4316 155.134 20.0171C155.731 18.6165 156.029 16.9218 156.029 14.933L156.029 11.2984L161.045 11.2984L161.045 14.933C161.045 16.5296 161.318 17.9302 161.862 19.1347C162.406 20.3532 163.162 21.3056 164.131 21.9919C165.113 22.6782 166.261 23.0213 167.574 23.0213C168.835 23.0213 169.93 22.7202 170.859 22.1179C171.801 21.5297 172.537 20.6893 173.068 19.5969C173.599 18.5184 173.864 17.2439 173.864 15.7733C173.864 14.3727 173.619 13.0632 173.128 11.8447C172.65 10.6402 171.96 9.65977 171.058 8.90346C170.169 8.14715 169.1 7.74099 167.853 7.68497L167.853 1.40337C170.056 1.4734 171.993 2.15968 173.665 3.46221C175.337 4.77876 176.645 6.51548 177.587 8.67237C178.529 10.8293 179 13.2242 179 15.8573C179 18.6165 178.489 20.9975 177.467 23.0003C176.459 25.0171 175.112 26.5718 173.427 27.6642C171.741 28.7707 169.897 29.3169 167.893 29.3029C165.61 29.3169 163.673 28.6446 162.081 27.2861C160.488 25.9415 159.42 24.1488 158.876 21.9078L158.557 21.9078C158.146 24.765 157.071 26.9779 155.333 28.5466C153.594 30.1292 151.438 30.9136 148.864 30.8996C146.621 30.9136 144.61 30.2553 142.832 28.9247C141.054 27.6082 139.654 25.8085 138.632 23.5255C137.624 21.2426 137.119 18.6305 137.119 15.6893Z" fill="black"/>
<path d="M137.299 41.7926C137.299 40.6441 137.683 39.6567 138.453 38.8303C139.236 38.004 140.178 37.5908 141.28 37.5908C142.368 37.5908 143.297 38.004 144.066 38.8303C144.849 39.6567 145.241 40.6441 145.241 41.7926C145.241 42.941 144.849 43.9284 144.066 44.7548C143.297 45.5811 142.368 45.9943 141.28 45.9943C140.55 45.9943 139.88 45.7982 139.269 45.406C138.672 45.0279 138.194 44.5237 137.836 43.8934C137.478 43.2631 137.299 42.5629 137.299 41.7926Z" fill="black"/>
<path d="M137 67.7435C137.013 64.4241 137.843 61.588 139.488 59.235C141.134 56.882 143.529 55.0823 146.674 53.8358C149.819 52.5892 153.608 51.966 158.04 51.966C162.459 51.966 166.234 52.5892 169.366 53.8358C172.498 55.0963 174.886 56.903 176.532 59.256C178.177 61.623 179 64.4521 179 67.7435C179 71.0348 178.171 73.857 176.512 76.21C174.866 78.563 172.478 80.3627 169.346 81.6092C166.227 82.8698 162.459 83.5 158.04 83.5C153.594 83.5 149.799 82.8767 146.654 81.6302C143.522 80.3837 141.127 78.584 139.468 76.231C137.823 73.878 137 71.0488 137 67.7435ZM142.315 67.7435C142.315 70.6567 143.662 72.9326 146.355 74.5713C149.049 76.224 152.944 77.0503 158.04 77.0503C161.424 77.0503 164.283 76.6722 166.619 75.9159C168.968 75.1736 170.746 74.1021 171.954 72.7016C173.174 71.315 173.785 69.6623 173.785 67.7435C173.785 64.8443 172.431 62.5684 169.724 60.9157C167.017 59.263 163.122 58.4296 158.04 58.4156C154.643 58.4156 151.77 58.7868 149.421 59.5291C147.085 60.2854 145.314 61.3569 144.106 62.7434C142.912 64.13 142.315 65.7967 142.315 67.7435Z" fill="black"/>
<path d="M95 83.5H102.579L115.757 52.4062H116.243L129.421 83.5H137V28.5H131.058V72.4453H130.674L118.466 43.5586H113.534L101.326 72.4648H100.942V43.5H95V83.5Z" fill="black"/>
<path d="M90.3719 83.5L97 83.5L82 43.5H75L60 83.5L66.6281 83.5L78.3282 50.7656L78.6516 50.7656L90.3719 83.5ZM89.2605 67.8359L67.7597 67.8359L67.7597 72.9141L89.2605 72.9141L89.2605 67.8359Z" fill="black"/>
<path d="M33 43.5V83.5H58.7593V78.3047H39.1991V66.1172H57.4151V60.9414H39.1991V48.6953H59V43.5H33Z" fill="black"/>
<path d="M0 78.3047V83.5H34V78.3047H19V43.5H12V78.3047H0Z" fill="black"/>
<path d="M130.522 0.5H137V29.6729C137 32.5644 136.296 35.1263 134.889 37.3588C133.482 39.5778 131.504 41.3261 128.955 42.6037C126.405 43.8679 123.417 44.5 119.99 44.5C116.576 44.5 113.595 43.8679 111.045 42.6037C108.496 41.3261 106.518 39.5778 105.111 37.3588C103.704 35.1263 103 32.5644 103 29.6729V0.5H109.457V29.1686C109.457 31.0379 109.882 32.6988 110.732 34.1513C111.596 35.6037 112.815 36.7469 114.389 37.5807C115.963 38.4011 117.83 38.8112 119.99 38.8112C122.163 38.8112 124.037 38.4011 125.611 37.5807C127.199 36.7469 128.411 35.6037 129.247 34.1513C130.097 32.6988 130.522 31.0379 130.522 29.1686V0.5Z" fill="black"/>
<path d="M65.4383 12.0346C65.2214 10.1054 64.3263 8.6109 62.7533 7.55118C61.1802 6.47788 59.2004 5.94123 56.8137 5.94123C55.105 5.94123 53.6269 6.21295 52.3793 6.7564C51.1317 7.28626 50.1621 8.01991 49.4705 8.95735C48.7924 9.8812 48.4534 10.9341 48.4534 12.1161C48.4534 13.1079 48.6839 13.9638 49.145 14.6839C49.6196 15.4039 50.1671 16.0085 50.9265 16.4976C51.6995 16.9731 52.5267 17.3739 53.4081 17.7C54.2896 18.0125 55.1371 18.2706 55.9508 18.4744L60.019 19.5341C61.348 19.8602 62.7108 20.3017 64.1076 20.8588C65.5044 21.4158 66.7994 22.1494 67.9928 23.0597C69.1861 23.97 70.149 25.0976 70.8812 26.4427C71.6271 27.7877 72 29.3976 72 31.2725C72 33.6365 71.3898 35.7355 70.1693 37.5697C68.9624 39.4038 67.2063 40.8507 64.9009 41.9104C62.6091 42.9701 59.836 43.5 56.5814 43.5C53.4624 43.5 50.7638 43.0041 48.4856 42.0123C46.2073 41.0205 44.4241 39.6144 43.1358 37.7938C41.8475 35.9597 41.1356 33.7859 41 31.2725H47.3058C47.4278 32.7806 47.916 34.0373 48.7703 35.0427C49.6382 36.0344 50.7434 36.7749 52.086 37.264C53.442 37.7395 54.9269 37.9773 56.5407 37.9773C58.3171 37.9773 59.897 37.6987 61.2802 37.1417C62.6769 36.5711 63.7754 35.7831 64.5755 34.7777C65.3755 33.7588 65.7756 32.57 65.7756 31.2114C65.7756 29.975 65.423 28.9629 64.7178 28.1749C64.0262 27.3869 63.0838 26.7348 61.8904 26.2185C60.7106 25.7022 59.3749 25.2471 57.8832 24.8531L52.9606 23.5081C49.6247 22.5978 46.9803 21.2596 45.0276 19.4934C43.0884 17.7272 42.1883 15.3904 42.1883 12.4829C42.1883 10.0782 42.8392 7.97915 44.1411 6.18578C45.4429 4.39242 47.2058 2.99984 49.4298 2.00806C51.6538 1.00269 54.1625 0.5 56.956 0.5C59.7767 0.5 62.2651 0.995893 64.4213 1.98768C66.591 2.97946 68.2997 4.34487 69.5472 6.08389C70.7948 7.80932 71.4458 9.79289 71.5 12.0346H65.4383Z" fill="black"/>
<path d="M12 43.5V0.5H26.7116C29.9226 0.5 32.5828 1.08463 34.6921 2.25388C36.8015 3.42313 38.3801 5.02245 39.4281 7.05185C40.476 9.0678 41 13.3391 41 15.8658C41 18.4059 40.4693 20.6906 39.4079 22.72C38.36 24.736 36.7746 26.3353 34.6518 27.518C32.5425 28.6872 29.889 29.2719 26.6915 29.2719H16.5747V23.9901H26.1272C28.1559 23.9901 29.8017 23.6406 31.0646 22.9418C32.3275 22.2295 33.2546 21.2618 33.8457 20.0388C34.4369 18.8158 34.7325 17.4248 34.7325 15.8658C34.7325 14.3068 34.5912 11.7096 34 10.5C33.4088 9.29043 32.3208 7.55584 31.0445 6.87041C29.7816 6.18499 28.1156 5.84228 26.0466 5.84228H19V43.5H12Z" fill="black"/>
<path d="M75 43.5V0.5H89.7116C92.9226 0.5 95.5828 1.08463 97.6921 2.25388C99.8015 3.42313 101.38 5.02245 102.428 7.05185C103.476 9.0678 104 13.3391 104 15.8658C104 18.4059 103.469 20.6906 102.408 22.72C101.36 24.736 99.7746 26.3353 97.6518 27.518C95.5425 28.6872 92.889 29.2719 89.6915 29.2719H79.5747V23.9901H89.1272C91.1559 23.9901 92.8017 23.6406 94.0646 22.9418C95.3275 22.2295 96.2546 21.2618 96.8457 20.0388C97.4369 18.8158 97.7325 17.4248 97.7325 15.8658C97.7325 14.3068 97.5912 11.7096 97 10.5C96.4088 9.29043 95.3208 7.55584 94.0445 6.87041C92.7816 6.18499 91.1156 5.84228 89.0466 5.84228H82V43.5H75Z" fill="black"/>
</svg>
